<?xml version="1.0" standalone="no"?>
<svg xmlns="http://www.w3.org/2000/svg" width="500" height="500"><defs><clipPath id="clip-path-dot-color"><path d="M 19 145v 14h 7a 7 7, 0, 0, 0, 0 -14" transform="rotate(180,26,152)"/><path d="M 19 173v 14h 7a 7 7, 0, 0, 0, 0 -14" transform="rotate(180,26,180)"/><path d="M 19 201v 14h 7a 7 7, 0, 0, 0, 0 -14" transform="rotate(180,26,208)"/><path d="M 19 257v 14h 7a 7 7, 0, 0, 0, 0 -14" transform="rotate(-90,26,264)"/><rect x="19" y="271" width="14" height="14" transform="rotate(0,26,278)"/><rect x="19" y="285" width="14" height="14" transform="rotate(0,26,292)"/><rect x="19" y="299" width="14" height="14" transform="rotate(0,26,306)"/><path d="M 19 313v 14h 7a 7 7, 0, 0, 0, 0 -14" transform="rotate(90,26,320)"/><path d="M 19 341v 14h 7a 7 7, 0, 0, 0, 0 -14" transform="rotate(180,26,348)"/><path d="M 33 131v 14h 14v -7a 7 7, 0, 0, 0, -7 -7" transform="rotate(-90,40,138)"/><path d="M 33 145v 14h 14v -7a 7 7, 0, 0, 0, -7 -7" transform="rotate(90,40,152)"/><rect x="33" y="173" width="14" height="14" transform="rotate(0,40,180)"/><rect x="33" y="201" width="14" height="14" transform="rotate(0,40,208)"/><path d="M 33 229v 14h 7a 7 7, 0, 0, 0, 0 -14" transform="rotate(180,40,236)"/><path d="M 33 271v 14h 7a 7 7, 0, 0, 0, 0 -14" transform="rotate(0,40,278)"/><path d="M 33 299v 14h 7a 7 7, 0, 0, 0, 0 -14" transform="rotate(0,40,306)"/><path d="M 33 327v 14h 7a 7 7, 0, 0, 0, 0 -14" transform="rotate(-90,40,334)"/><path d="M 33 341v 14h 14v -7a 7 7, 0, 0, 0, -7 -7" transform="rotate(90,40,348)"/><path d="M 47 131v 14h 7a 7 7, 0, 0, 0, 0 -14" transform="rotate(0,54,138)"/><path d="M 47 159v 14h 14v -7a 7 7, 0, 0, 0, -7 -7" transform="rotate(-90,54,166)"/><rect x="47" y="173" width="14" height="14" transform="rotate(0,54,180)"/><rect x="47" y="201" width="14" height="14" transform="rotate(0,54,208)"/><rect x="47" y="215" width="14" height="14" transform="rotate(0,54,222)"/><rect x="47" y="229" width="14" height="14" transform="rotate(0,54,236)"/><rect x="47" y="243" width="14" height="14" transform="rotate(0,54,250)"/><path d="M 47 257v 14h 7a 7 7, 0, 0, 0, 0 -14" transform="rotate(90,54,264)"/><path d="M 47 355v 14h 7a 7 7, 0, 0, 0, 0 -14" transform="rotate(180,54,362)"/><path d="M 61 145v 14h 14v -7a 7 7, 0, 0, 0, -7 -7" transform="rotate(-90,68,152)"/><rect x="61" y="159" width="14" height="14" transform="rotate(0,68,166)"/><rect x="61" y="173" width="14" height="14" transform="rotate(0,68,180)"/><rect x="61" y="201" width="14" height="14" transform="rotate(0,68,208)"/><path d="M 61 243v 14h 7a 7 7, 0, 0, 0, 0 -14" transform="rotate(0,68,250)"/><path d="M 61 299v 14h 7a 7 7, 0, 0, 0, 0 -14" transform="rotate(180,68,306)"/><path d="M 61 327v 14h 14v -7a 7 7, 0, 0, 0, -7 -7" transform="rotate(-90,68,334)"/><rect x="61" y="341" width="14" height="14" transform="rotate(0,68,348)"/><rect x="61" y="355" width="14" height="14" transform="rotate(0,68,362)"/><rect x="75" y="145" width="14" height="14" transform="rotate(0,82,152)"/><path d="M 75 173v 14h 14v -7a 7 7, 0, 0, 0, -7 -7" transform="rotate(0,82,180)"/><rect x="75" y="187" width="14" height="14" transform="rotate(0,82,194)"/><rect x="75" y="201" width="14" height="14" transform="rotate(0,82,208)"/><circle cx="82" cy="236" r="7" transform="rotate(0,82,236)"/><circle cx="82" cy="264" r="7" transform="rotate(0,82,264)"/><rect x="75" y="299" width="14" height="14" transform="rotate(0,82,306)"/><rect x="75" y="313" width="14" height="14" transform="rotate(0,82,320)"/><path d="M 75 327v 14h 14v -7a 7 7, 0, 0, 0, -7 -7" transform="rotate(90,82,334)"/><path d="M 75 355v 14h 7a 7 7, 0, 0, 0, 0 -14" transform="rotate(0,82,362)"/><path d="M 89 145v 14h 7a 7 7, 0, 0, 0, 0 -14" transform="rotate(0,96,152)"/><path d="M 89 201v 14h 14v -7a 7 7, 0, 0, 0, -7 -7" transform="rotate(0,96,208)"/><path d="M 89 215v 14h 14v -7a 7 7, 0, 0, 0, -7 -7" transform="rotate(180,96,222)"/><path d="M 89 243v 14h 7a 7 7, 0, 0, 0, 0 -14" transform="rotate(180,96,250)"/><path d="M 89 285v 14h 7a 7 7, 0, 0, 0, 0 -14" transform="rotate(-90,96,292)"/><rect x="89" y="299" width="14" height="14" transform="rotate(0,96,306)"/><circle cx="110" cy="138" r="7" transform="rotate(0,110,138)"/><path d="M 103 159v 14h 7a 7 7, 0, 0, 0, 0 -14" transform="rotate(180,110,166)"/><path d="M 103 187v 14h 7a 7 7, 0, 0, 0, 0 -14" transform="rotate(180,110,194)"/><path d="M 103 215v 14h 7a 7 7, 0, 0, 0, 0 -14" transform="rotate(0,110,222)"/><path d="M 103 243v 14h 7a 7 7, 0, 0, 0, 0 -14" transform="rotate(0,110,250)"/><path d="M 103 271v 14h 7a 7 7, 0, 0, 0, 0 -14" transform="rotate(180,110,278)"/><rect x="103" y="299" width="14" height="14" transform="rotate(0,110,306)"/><circle cx="110" cy="334" r="7" transform="rotate(0,110,334)"/><circle cx="110" cy="362" r="7" transform="rotate(0,110,362)"/><path d="M 117 159v 14h 7a 7 7, 0, 0, 0, 0 -14" transform="rotate(0,124,166)"/><path d="M 117 187v 14h 7a 7 7, 0, 0, 0, 0 -14" transform="rotate(0,124,194)"/><path d="M 117 257v 14h 14v -7a 7 7, 0, 0, 0, -7 -7" transform="rotate(-90,124,264)"/><path d="M 117 271v 14h 14v -7a 7 7, 0, 0, 0, -7 -7" transform="rotate(90,124,278)"/><rect x="117" y="299" width="14" height="14" transform="rotate(0,124,306)"/><path d="M 131 33v 14h 14v -7a 7 7, 0, 0, 0, -7 -7" transform="rotate(-90,138,40)"/><rect x="131" y="47" width="14" height="14" transform="rotate(0,138,54)"/><path d="M 131 61v 14h 14v -7a 7 7, 0, 0, 0, -7 -7" transform="rotate(180,138,68)"/><path d="M 131 89v 14h 7a 7 7, 0, 0, 0, 0 -14" transform="rotate(-90,138,96)"/><path d="M 131 103v 14h 7a 7 7, 0, 0, 0, 0 -14" transform="rotate(90,138,110)"/><path d="M 131 145v 14h 7a 7 7, 0, 0, 0, 0 -14" transform="rotate(180,138,152)"/><path d="M 131 173v 14h 7a 7 7, 0, 0, 0, 0 -14" transform="rotate(180,138,180)"/><path d="M 131 201v 14h 7a 7 7, 0, 0, 0, 0 -14" transform="rotate(180,138,208)"/><path d="M 131 229v 14h 7a 7 7, 0, 0, 0, 0 -14" transform="rotate(-90,138,236)"/><rect x="131" y="243" width="14" height="14" transform="rotate(0,138,250)"/><path d="M 131 257v 14h 14v -7a 7 7, 0, 0, 0, -7 -7" transform="rotate(90,138,264)"/><path d="M 131 285v 14h 14v -7a 7 7, 0, 0, 0, -7 -7" transform="rotate(-90,138,292)"/><rect x="131" y="299" width="14" height="14" transform="rotate(0,138,306)"/><path d="M 131 313v 14h 14v -7a 7 7, 0, 0, 0, -7 -7" transform="rotate(180,138,320)"/><path d="M 131 439v 14h 14v -7a 7 7, 0, 0, 0, -7 -7" transform="rotate(-90,138,446)"/><path d="M 131 453v 14h 7a 7 7, 0, 0, 0, 0 -14" transform="rotate(90,138,460)"/><path d="M 145 33v 14h 7a 7 7, 0, 0, 0, 0 -14" transform="rotate(0,152,40)"/><rect x="145" y="61" width="14" height="14" transform="rotate(0,152,68)"/><path d="M 145 117v 14h 7a 7 7, 0, 0, 0, 0 -14" transform="rotate(180,152,124)"/><path d="M 145 145v 14h 14v -7a 7 7, 0, 0, 0, -7 -7" transform="rotate(0,152,152)"/><rect x="145" y="159" width="14" height="14" transform="rotate(0,152,166)"/><rect x="145" y="173" width="14" height="14" transform="rotate(0,152,180)"/><rect x="145" y="201" width="14" height="14" transform="rotate(0,152,208)"/><path d="M 145 285v 14h 14v -7a 7 7, 0, 0, 0, -7 -7" transform="rotate(0,152,292)"/><rect x="145" y="299" width="14" height="14" transform="rotate(0,152,306)"/><rect x="145" y="313" width="14" height="14" transform="rotate(0,152,320)"/><path d="M 145 341v 14h 7a 7 7, 0, 0, 0, 0 -14" transform="rotate(180,152,348)"/><path d="M 145 383v 14h 14v -7a 7 7, 0, 0, 0, -7 -7" transform="rotate(-90,152,390)"/><path d="M 145 397v 14h 14v -7a 7 7, 0, 0, 0, -7 -7" transform="rotate(180,152,404)"/><path d="M 145 425v 14h 14v -7a 7 7, 0, 0, 0, -7 -7" transform="rotate(-90,152,432)"/><path d="M 145 439v 14h 14v -7a 7 7, 0, 0, 0, -7 -7" transform="rotate(90,152,446)"/><path d="M 145 467v 14h 7a 7 7, 0, 0, 0, 0 -14" transform="rotate(180,152,474)"/><path d="M 159 19v 14h 7a 7 7, 0, 0, 0, 0 -14" transform="rotate(180,166,26)"/><path d="M 159 61v 14h 7a 7 7, 0, 0, 0, 0 -14" transform="rotate(0,166,68)"/><path d="M 159 89v 14h 14v -7a 7 7, 0, 0, 0, -7 -7" transform="rotate(-90,166,96)"/><rect x="159" y="103" width="14" height="14" transform="rotate(0,166,110)"/><path d="M 159 117v 14h 14v -7a 7 7, 0, 0, 0, -7 -7" transform="rotate(90,166,124)"/><rect x="159" y="159" width="14" height="14" transform="rotate(0,166,166)"/><rect x="159" y="173" width="14" height="14" transform="rotate(0,166,180)"/><rect x="159" y="187" width="14" height="14" transform="rotate(0,166,194)"/><rect x="159" y="201" width="14" height="14" transform="rotate(0,166,208)"/><rect x="159" y="215" width="14" height="14" transform="rotate(0,166,222)"/><rect x="159" y="229" width="14" height="14" transform="rotate(0,166,236)"/><rect x="159" y="243" width="14" height="14" transform="rotate(0,166,250)"/><path d="M 159 257v 14h 7a 7 7, 0, 0, 0, 0 -14" transform="rotate(90,166,264)"/><path d="M 159 313v 14h 7a 7 7, 0, 0, 0, 0 -14" transform="rotate(0,166,320)"/><path d="M 159 341v 14h 14v -7a 7 7, 0, 0, 0, -7 -7" transform="rotate(0,166,348)"/><path d="M 159 355v 14h 14v -7a 7 7, 0, 0, 0, -7 -7" transform="rotate(180,166,362)"/><rect x="159" y="383" width="14" height="14" transform="rotate(0,166,390)"/><rect x="159" y="397" width="14" height="14" transform="rotate(0,166,404)"/><rect x="159" y="411" width="14" height="14" transform="rotate(0,166,418)"/><rect x="159" y="425" width="14" height="14" transform="rotate(0,166,432)"/><path d="M 159 453v 14h 14v -7a 7 7, 0, 0, 0, -7 -7" transform="rotate(-90,166,460)"/><rect x="159" y="467" width="14" height="14" transform="rotate(0,166,474)"/><rect x="173" y="19" width="14" height="14" transform="rotate(0,180,26)"/><rect x="173" y="33" width="14" height="14" transform="rotate(0,180,40)"/><path d="M 173 47v 14h 14v -7a 7 7, 0, 0, 0, -7 -7" transform="rotate(180,180,54)"/><path d="M 173 75v 14h 7a 7 7, 0, 0, 0, 0 -14" transform="rotate(-90,180,82)"/><rect x="173" y="89" width="14" height="14" transform="rotate(0,180,96)"/><path d="M 173 131v 14h 7a 7 7, 0, 0, 0, 0 -14" transform="rotate(180,180,138)"/><rect x="173" y="159" width="14" height="14" transform="rotate(0,180,166)"/><rect x="173" y="173" width="14" height="14" transform="rotate(0,180,180)"/><path d="M 173 201v 14h 14v -7a 7 7, 0, 0, 0, -7 -7" transform="rotate(0,180,208)"/><rect x="173" y="215" width="14" height="14" transform="rotate(0,180,222)"/><path d="M 173 271v 14h 7a 7 7, 0, 0, 0, 0 -14" transform="rotate(180,180,278)"/><circle cx="180" cy="306" r="7" transform="rotate(0,180,306)"/><path d="M 173 355v 14h 14v -7a 7 7, 0, 0, 0, -7 -7" transform="rotate(0,180,362)"/><rect x="173" y="369" width="14" height="14" transform="rotate(0,180,376)"/><rect x="173" y="383" width="14" height="14" transform="rotate(0,180,390)"/><rect x="173" y="397" width="14" height="14" transform="rotate(0,180,404)"/><rect x="173" y="425" width="14" height="14" transform="rotate(0,180,432)"/><rect x="173" y="453" width="14" height="14" transform="rotate(0,180,460)"/><rect x="173" y="467" width="14" height="14" transform="rotate(0,180,474)"/><rect x="187" y="19" width="14" height="14" transform="rotate(0,194,26)"/><rect x="187" y="47" width="14" height="14" transform="rotate(0,194,54)"/><rect x="187" y="89" width="14" height="14" transform="rotate(0,194,96)"/><rect x="187" y="103" width="14" height="14" transform="rotate(0,194,110)"/><rect x="187" y="117" width="14" height="14" transform="rotate(0,194,124)"/><path d="M 187 131v 14h 14v -7a 7 7, 0, 0, 0, -7 -7" transform="rotate(90,194,138)"/><rect x="187" y="159" width="14" height="14" transform="rotate(0,194,166)"/><rect x="187" y="173" width="14" height="14" transform="rotate(0,194,180)"/><path d="M 187 187v 14h 14v -7a 7 7, 0, 0, 0, -7 -7" transform="rotate(180,194,194)"/><rect x="187" y="215" width="14" height="14" transform="rotate(0,194,222)"/><circle cx="194" cy="250" r="7" transform="rotate(0,194,250)"/><rect x="187" y="271" width="14" height="14" transform="rotate(0,194,278)"/><path d="M 187 285v 14h 7a 7 7, 0, 0, 0, 0 -14" transform="rotate(90,194,292)"/><path d="M 187 327v 14h 7a 7 7, 0, 0, 0, 0 -14" transform="rotate(180,194,334)"/><rect x="187" y="397" width="14" height="14" transform="rotate(0,194,404)"/><rect x="187" y="411" width="14" height="14" transform="rotate(0,194,418)"/><path d="M 187 425v 14h 14v -7a 7 7, 0, 0, 0, -7 -7" transform="rotate(90,194,432)"/><rect x="187" y="453" width="14" height="14" transform="rotate(0,194,460)"/><path d="M 187 467v 14h 14v -7a 7 7, 0, 0, 0, -7 -7" transform="rotate(90,194,474)"/><path d="M 201 19v 14h 7a 7 7, 0, 0, 0, 0 -14" transform="rotate(0,208,26)"/><path d="M 201 47v 14h 14v -7a 7 7, 0, 0, 0, -7 -7" transform="rotate(0,208,54)"/><rect x="201" y="61" width="14" height="14" transform="rotate(0,208,68)"/><rect x="201" y="75" width="14" height="14" transform="rotate(0,208,82)"/><rect x="201" y="89" width="14" height="14" transform="rotate(0,208,96)"/><path d="M 201 145v 14h 14v -7a 7 7, 0, 0, 0, -7 -7" transform="rotate(-90,208,152)"/><rect x="201" y="159" width="14" height="14" transform="rotate(0,208,166)"/><rect x="201" y="187" width="14" height="14" transform="rotate(0,208,194)"/><path d="M 201 215v 14h 7a 7 7, 0, 0, 0, 0 -14" transform="rotate(0,208,222)"/><path d="M 201 257v 14h 7a 7 7, 0, 0, 0, 0 -14" transform="rotate(-90,208,264)"/><rect x="201" y="271" width="14" height="14" transform="rotate(0,208,278)"/><path d="M 201 327v 14h 14v -7a 7 7, 0, 0, 0, -7 -7" transform="rotate(0,208,334)"/><rect x="201" y="341" width="14" height="14" transform="rotate(0,208,348)"/><path d="M 201 355v 14h 14v -7a 7 7, 0, 0, 0, -7 -7" transform="rotate(180,208,362)"/><rect x="201" y="397" width="14" height="14" transform="rotate(0,208,404)"/><path d="M 201 453v 14h 7a 7 7, 0, 0, 0, 0 -14" transform="rotate(0,208,460)"/><path d="M 215 89v 14h 14v -7a 7 7, 0, 0, 0, -7 -7" transform="rotate(0,222,96)"/><rect x="215" y="103" width="14" height="14" transform="rotate(0,222,110)"/><path d="M 215 117v 14h 14v -7a 7 7, 0, 0, 0, -7 -7" transform="rotate(180,222,124)"/><rect x="215" y="145" width="14" height="14" transform="rotate(0,222,152)"/><path d="M 215 159v 14h 14v -7a 7 7, 0, 0, 0, -7 -7" transform="rotate(90,222,166)"/><rect x="215" y="187" width="14" height="14" transform="rotate(0,222,194)"/><path d="M 215 229v 14h 14v -7a 7 7, 0, 0, 0, -7 -7" transform="rotate(-90,222,236)"/><path d="M 215 243v 14h 7a 7 7, 0, 0, 0, 0 -14" transform="rotate(90,222,250)"/><rect x="215" y="271" width="14" height="14" transform="rotate(0,222,278)"/><path d="M 215 355v 14h 7a 7 7, 0, 0, 0, 0 -14" transform="rotate(0,222,362)"/><path d="M 215 383v 14h 14v -7a 7 7, 0, 0, 0, -7 -7" transform="rotate(-90,222,390)"/><rect x="215" y="397" width="14" height="14" transform="rotate(0,222,404)"/><rect x="215" y="411" width="14" height="14" transform="rotate(0,222,418)"/><rect x="215" y="425" width="14" height="14" transform="rotate(0,222,432)"/><path d="M 215 439v 14h 14v -7a 7 7, 0, 0, 0, -7 -7" transform="rotate(180,222,446)"/><circle cx="236" cy="26" r="7" transform="rotate(0,236,26)"/><path d="M 229 61v 14h 7a 7 7, 0, 0, 0, 0 -14" transform="rotate(-90,236,68)"/><path d="M 229 75v 14h 7a 7 7, 0, 0, 0, 0 -14" transform="rotate(90,236,82)"/><rect x="229" y="117" width="14" height="14" transform="rotate(0,236,124)"/><rect x="229" y="131" width="14" height="14" transform="rotate(0,236,138)"/><rect x="229" y="145" width="14" height="14" transform="rotate(0,236,152)"/><path d="M 229 173v 14h 7a 7 7, 0, 0, 0, 0 -14" transform="rotate(-90,236,180)"/><path d="M 229 187v 14h 14v -7a 7 7, 0, 0, 0, -7 -7" transform="rotate(90,236,194)"/><path d="M 229 215v 14h 7a 7 7, 0, 0, 0, 0 -14" transform="rotate(-90,236,222)"/><path d="M 229 229v 14h 14v -7a 7 7, 0, 0, 0, -7 -7" transform="rotate(90,236,236)"/><rect x="229" y="271" width="14" height="14" transform="rotate(0,236,278)"/><rect x="229" y="285" width="14" height="14" transform="rotate(0,236,292)"/><rect x="229" y="299" width="14" height="14" transform="rotate(0,236,306)"/><rect x="229" y="313" width="14" height="14" transform="rotate(0,236,320)"/><rect x="229" y="327" width="14" height="14" transform="rotate(0,236,334)"/><path d="M 229 341v 14h 7a 7 7, 0, 0, 0, 0 -14" transform="rotate(90,236,348)"/><path d="M 229 369v 14h 14v -7a 7 7, 0, 0, 0, -7 -7" transform="rotate(-90,236,376)"/><rect x="229" y="383" width="14" height="14" transform="rotate(0,236,390)"/><rect x="229" y="425" width="14" height="14" transform="rotate(0,236,432)"/><rect x="229" y="439" width="14" height="14" transform="rotate(0,236,446)"/><circle cx="250" cy="54" r="7" transform="rotate(0,250,54)"/><path d="M 243 89v 14h 14v -7a 7 7, 0, 0, 0, -7 -7" transform="rotate(-90,250,96)"/><rect x="243" y="103" width="14" height="14" transform="rotate(0,250,110)"/><path d="M 243 117v 14h 14v -7a 7 7, 0, 0, 0, -7 -7" transform="rotate(90,250,124)"/><path d="M 243 145v 14h 7a 7 7, 0, 0, 0, 0 -14" transform="rotate(0,250,152)"/><circle cx="250" cy="208" r="7" transform="rotate(0,250,208)"/><path d="M 243 243v 14h 7a 7 7, 0, 0, 0, 0 -14" transform="rotate(-90,250,250)"/><rect x="243" y="257" width="14" height="14" transform="rotate(0,250,264)"/><rect x="243" y="271" width="14" height="14" transform="rotate(0,250,278)"/><rect x="243" y="285" width="14" height="14" transform="rotate(0,250,292)"/><rect x="243" y="299" width="14" height="14" transform="rotate(0,250,306)"/><rect x="243" y="313" width="14" height="14" transform="rotate(0,250,320)"/><rect x="243" y="327" width="14" height="14" transform="rotate(0,250,334)"/><rect x="243" y="369" width="14" height="14" transform="rotate(0,250,376)"/><rect x="243" y="383" width="14" height="14" transform="rotate(0,250,390)"/><path d="M 243 411v 14h 14v -7a 7 7, 0, 0, 0, -7 -7" transform="rotate(-90,250,418)"/><rect x="243" y="425" width="14" height="14" transform="rotate(0,250,432)"/><path d="M 243 439v 14h 14v -7a 7 7, 0, 0, 0, -7 -7" transform="rotate(90,250,446)"/><path d="M 257 19v 14h 7a 7 7, 0, 0, 0, 0 -14" transform="rotate(-90,264,26)"/><path d="M 257 33v 14h 14v -7a 7 7, 0, 0, 0, -7 -7" transform="rotate(180,264,40)"/><path d="M 257 89v 14h 7a 7 7, 0, 0, 0, 0 -14" transform="rotate(0,264,96)"/><path d="M 257 173v 14h 14v -7a 7 7, 0, 0, 0, -7 -7" transform="rotate(-90,264,180)"/><path d="M 257 187v 14h 14v -7a 7 7, 0, 0, 0, -7 -7" transform="rotate(180,264,194)"/><circle cx="264" cy="222" r="7" transform="rotate(0,264,222)"/><rect x="257" y="271" width="14" height="14" transform="rotate(0,264,278)"/><path d="M 257 299v 14h 7a 7 7, 0, 0, 0, 0 -14" transform="rotate(0,264,306)"/><rect x="257" y="327" width="14" height="14" transform="rotate(0,264,334)"/><rect x="257" y="341" width="14" height="14" transform="rotate(0,264,348)"/><rect x="257" y="355" width="14" height="14" transform="rotate(0,264,362)"/><rect x="257" y="369" width="14" height="14" transform="rotate(0,264,376)"/><rect x="257" y="383" width="14" height="14" transform="rotate(0,264,390)"/><rect x="257" y="411" width="14" height="14" transform="rotate(0,264,418)"/><path d="M 257 425v 14h 14v -7a 7 7, 0, 0, 0, -7 -7" transform="rotate(90,264,432)"/><path d="M 257 453v 14h 7a 7 7, 0, 0, 0, 0 -14" transform="rotate(-90,264,460)"/><path d="M 257 467v 14h 7a 7 7, 0, 0, 0, 0 -14" transform="rotate(90,264,474)"/><rect x="271" y="33" width="14" height="14" transform="rotate(0,278,40)"/><path d="M 271 47v 14h 7a 7 7, 0, 0, 0, 0 -14" transform="rotate(90,278,54)"/><circle cx="278" cy="82" r="7" transform="rotate(0,278,82)"/><path d="M 271 103v 14h 7a 7 7, 0, 0, 0, 0 -14" transform="rotate(-90,278,110)"/><path d="M 271 117v 14h 7a 7 7, 0, 0, 0, 0 -14" transform="rotate(90,278,124)"/><path d="M 271 145v 14h 7a 7 7, 0, 0, 0, 0 -14" transform="rotate(-90,278,152)"/><rect x="271" y="159" width="14" height="14" transform="rotate(0,278,166)"/><rect x="271" y="173" width="14" height="14" transform="rotate(0,278,180)"/><rect x="271" y="187" width="14" height="14" transform="rotate(0,278,194)"/><path d="M 271 201v 14h 7a 7 7, 0, 0, 0, 0 -14" transform="rotate(90,278,208)"/><circle cx="278" cy="236" r="7" transform="rotate(0,278,236)"/><path d="M 271 271v 14h 7a 7 7, 0, 0, 0, 0 -14" transform="rotate(0,278,278)"/><path d="M 271 313v 14h 7a 7 7, 0, 0, 0, 0 -14" transform="rotate(-90,278,320)"/><rect x="271" y="327" width="14" height="14" transform="rotate(0,278,334)"/><path d="M 271 369v 14h 14v -7a 7 7, 0, 0, 0, -7 -7" transform="rotate(0,278,376)"/><rect x="271" y="383" width="14" height="14" transform="rotate(0,278,390)"/><rect x="271" y="397" width="14" height="14" transform="rotate(0,278,404)"/><rect x="271" y="411" width="14" height="14" transform="rotate(0,278,418)"/><circle cx="278" cy="446" r="7" transform="rotate(0,278,446)"/><path d="M 285 33v 14h 7a 7 7, 0, 0, 0, 0 -14" transform="rotate(0,292,40)"/><path d="M 285 215v 14h 7a 7 7, 0, 0, 0, 0 -14" transform="rotate(180,292,222)"/><path d="M 285 243v 14h 7a 7 7, 0, 0, 0, 0 -14" transform="rotate(-90,292,250)"/><path d="M 285 257v 14h 7a 7 7, 0, 0, 0, 0 -14" transform="rotate(90,292,264)"/><path d="M 285 327v 14h 7a 7 7, 0, 0, 0, 0 -14" transform="rotate(0,292,334)"/><path d="M 285 411v 14h 7a 7 7, 0, 0, 0, 0 -14" transform="rotate(0,292,418)"/><path d="M 285 467v 14h 7a 7 7, 0, 0, 0, 0 -14" transform="rotate(180,292,474)"/><path d="M 299 75v 14h 7a 7 7, 0, 0, 0, 0 -14" transform="rotate(-90,306,82)"/><rect x="299" y="89" width="14" height="14" transform="rotate(0,306,96)"/><path d="M 299 103v 14h 7a 7 7, 0, 0, 0, 0 -14" transform="rotate(90,306,110)"/><path d="M 299 145v 14h 7a 7 7, 0, 0, 0, 0 -14" transform="rotate(180,306,152)"/><path d="M 299 187v 14h 7a 7 7, 0, 0, 0, 0 -14" transform="rotate(-90,306,194)"/><rect x="299" y="201" width="14" height="14" transform="rotate(0,306,208)"/><rect x="299" y="215" width="14" height="14" transform="rotate(0,306,222)"/><path d="M 299 229v 14h 7a 7 7, 0, 0, 0, 0 -14" transform="rotate(90,306,236)"/><circle cx="306" cy="278" r="7" transform="rotate(0,306,278)"/><path d="M 299 313v 14h 7a 7 7, 0, 0, 0, 0 -14" transform="rotate(180,306,320)"/><circle cx="306" cy="404" r="7" transform="rotate(0,306,404)"/><path d="M 299 425v 14h 7a 7 7, 0, 0, 0, 0 -14" transform="rotate(-90,306,432)"/><rect x="299" y="439" width="14" height="14" transform="rotate(0,306,446)"/><rect x="299" y="453" width="14" height="14" transform="rotate(0,306,460)"/><rect x="299" y="467" width="14" height="14" transform="rotate(0,306,474)"/><path d="M 313 19v 14h 7a 7 7, 0, 0, 0, 0 -14" transform="rotate(-90,320,26)"/><path d="M 313 33v 14h 7a 7 7, 0, 0, 0, 0 -14" transform="rotate(90,320,40)"/><circle cx="320" cy="68" r="7" transform="rotate(0,320,68)"/><path d="M 313 117v 14h 7a 7 7, 0, 0, 0, 0 -14" transform="rotate(-90,320,124)"/><rect x="313" y="131" width="14" height="14" transform="rotate(0,320,138)"/><rect x="313" y="145" width="14" height="14" transform="rotate(0,320,152)"/><path d="M 313 159v 14h 14v -7a 7 7, 0, 0, 0, -7 -7" transform="rotate(180,320,166)"/><path d="M 313 201v 14h 14v -7a 7 7, 0, 0, 0, -7 -7" transform="rotate(0,320,208)"/><rect x="313" y="215" width="14" height="14" transform="rotate(0,320,222)"/><path d="M 313 243v 14h 14v -7a 7 7, 0, 0, 0, -7 -7" transform="rotate(-90,320,250)"/><path d="M 313 257v 14h 14v -7a 7 7, 0, 0, 0, -7 -7" transform="rotate(180,320,264)"/><rect x="313" y="313" width="14" height="14" transform="rotate(0,320,320)"/><path d="M 313 341v 14h 14v -7a 7 7, 0, 0, 0, -7 -7" transform="rotate(-90,320,348)"/><path d="M 313 355v 14h 14v -7a 7 7, 0, 0, 0, -7 -7" transform="rotate(180,320,362)"/><circle cx="320" cy="390" r="7" transform="rotate(0,320,390)"/><rect x="313" y="467" width="14" height="14" transform="rotate(0,320,474)"/><path d="M 327 47v 14h 7a 7 7, 0, 0, 0, 0 -14" transform="rotate(180,334,54)"/><path d="M 327 89v 14h 7a 7 7, 0, 0, 0, 0 -14" transform="rotate(-90,334,96)"/><path d="M 327 103v 14h 7a 7 7, 0, 0, 0, 0 -14" transform="rotate(90,334,110)"/><rect x="327" y="131" width="14" height="14" transform="rotate(0,334,138)"/><rect x="327" y="145" width="14" height="14" transform="rotate(0,334,152)"/><rect x="327" y="159" width="14" height="14" transform="rotate(0,334,166)"/><path d="M 327 215v 14h 7a 7 7, 0, 0, 0, 0 -14" transform="rotate(0,334,222)"/><path d="M 327 243v 14h 14v -7a 7 7, 0, 0, 0, -7 -7" transform="rotate(0,334,250)"/><rect x="327" y="257" width="14" height="14" transform="rotate(0,334,264)"/><path d="M 327 313v 14h 7a 7 7, 0, 0, 0, 0 -14" transform="rotate(0,334,320)"/><rect x="327" y="341" width="14" height="14" transform="rotate(0,334,348)"/><rect x="327" y="355" width="14" height="14" transform="rotate(0,334,362)"/><path d="M 327 453v 14h 14v -7a 7 7, 0, 0, 0, -7 -7" transform="rotate(-90,334,460)"/><rect x="327" y="467" width="14" height="14" transform="rotate(0,334,474)"/><path d="M 341 33v 14h 7a 7 7, 0, 0, 0, 0 -14" transform="rotate(-90,348,40)"/><rect x="341" y="47" width="14" height="14" transform="rotate(0,348,54)"/><rect x="341" y="61" width="14" height="14" transform="rotate(0,348,68)"/><path d="M 341 75v 14h 7a 7 7, 0, 0, 0, 0 -14" transform="rotate(90,348,82)"/><path d="M 341 131v 14h 7a 7 7, 0, 0, 0, 0 -14" transform="rotate(0,348,138)"/><path d="M 341 159v 14h 14v -7a 7 7, 0, 0, 0, -7 -7" transform="rotate(0,348,166)"/><path d="M 341 173v 14h 14v -7a 7 7, 0, 0, 0, -7 -7" transform="rotate(180,348,180)"/><rect x="341" y="257" width="14" height="14" transform="rotate(0,348,264)"/><circle cx="348" cy="306" r="7" transform="rotate(0,348,306)"/><rect x="341" y="341" width="14" height="14" transform="rotate(0,348,348)"/><rect x="341" y="355" width="14" height="14" transform="rotate(0,348,362)"/><rect x="341" y="369" width="14" height="14" transform="rotate(0,348,376)"/><path d="M 341 383v 14h 14v -7a 7 7, 0, 0, 0, -7 -7" transform="rotate(180,348,390)"/><path d="M 341 425v 14h 7a 7 7, 0, 0, 0, 0 -14" transform="rotate(180,348,432)"/><path d="M 341 453v 14h 14v -7a 7 7, 0, 0, 0, -7 -7" transform="rotate(0,348,460)"/><rect x="341" y="467" width="14" height="14" transform="rotate(0,348,474)"/><circle cx="362" cy="26" r="7" transform="rotate(0,362,26)"/><path d="M 355 47v 14h 14v -7a 7 7, 0, 0, 0, -7 -7" transform="rotate(0,362,54)"/><path d="M 355 61v 14h 14v -7a 7 7, 0, 0, 0, -7 -7" transform="rotate(90,362,68)"/><path d="M 355 89v 14h 7a 7 7, 0, 0, 0, 0 -14" transform="rotate(-90,362,96)"/><path d="M 355 103v 14h 7a 7 7, 0, 0, 0, 0 -14" transform="rotate(90,362,110)"/><rect x="355" y="173" width="14" height="14" transform="rotate(0,362,180)"/><rect x="355" y="257" width="14" height="14" transform="rotate(0,362,264)"/><path d="M 355 285v 14h 7a 7 7, 0, 0, 0, 0 -14" transform="rotate(180,362,292)"/><path d="M 355 327v 14h 7a 7 7, 0, 0, 0, 0 -14" transform="rotate(-90,362,334)"/><rect x="355" y="341" width="14" height="14" transform="rotate(0,362,348)"/><rect x="355" y="355" width="14" height="14" transform="rotate(0,362,362)"/><rect x="355" y="369" width="14" height="14" transform="rotate(0,362,376)"/><rect x="355" y="383" width="14" height="14" transform="rotate(0,362,390)"/><rect x="355" y="397" width="14" height="14" transform="rotate(0,362,404)"/><rect x="355" y="411" width="14" height="14" transform="rotate(0,362,418)"/><rect x="355" y="425" width="14" height="14" transform="rotate(0,362,432)"/><path d="M 355 467v 14h 7a 7 7, 0, 0, 0, 0 -14" transform="rotate(0,362,474)"/><path d="M 369 131v 14h 7a 7 7, 0, 0, 0, 0 -14" transform="rotate(-90,376,138)"/><path d="M 369 145v 14h 7a 7 7, 0, 0, 0, 0 -14" transform="rotate(90,376,152)"/><rect x="369" y="173" width="14" height="14" transform="rotate(0,376,180)"/><rect x="369" y="187" width="14" height="14" transform="rotate(0,376,194)"/><path d="M 369 201v 14h 14v -7a 7 7, 0, 0, 0, -7 -7" transform="rotate(180,376,208)"/><path d="M 369 229v 14h 14v -7a 7 7, 0, 0, 0, -7 -7" transform="rotate(-90,376,236)"/><rect x="369" y="243" width="14" height="14" transform="rotate(0,376,250)"/><rect x="369" y="257" width="14" height="14" transform="rotate(0,376,264)"/><rect x="369" y="271" width="14" height="14" transform="rotate(0,376,278)"/><rect x="369" y="285" width="14" height="14" transform="rotate(0,376,292)"/><circle cx="376" cy="320" r="7" transform="rotate(0,376,320)"/><rect x="369" y="355" width="14" height="14" transform="rotate(0,376,362)"/><rect x="369" y="411" width="14" height="14" transform="rotate(0,376,418)"/><path d="M 369 425v 14h 14v -7a 7 7, 0, 0, 0, -7 -7" transform="rotate(90,376,432)"/><path d="M 369 453v 14h 7a 7 7, 0, 0, 0, 0 -14" transform="rotate(180,376,460)"/><path d="M 383 159v 14h 7a 7 7, 0, 0, 0, 0 -14" transform="rotate(-90,390,166)"/><path d="M 383 173v 14h 14v -7a 7 7, 0, 0, 0, -7 -7" transform="rotate(90,390,180)"/><path d="M 383 201v 14h 7a 7 7, 0, 0, 0, 0 -14" transform="rotate(0,390,208)"/><rect x="383" y="229" width="14" height="14" transform="rotate(0,390,236)"/><rect x="383" y="243" width="14" height="14" transform="rotate(0,390,250)"/><rect x="383" y="257" width="14" height="14" transform="rotate(0,390,264)"/><path d="M 383 285v 14h 7a 7 7, 0, 0, 0, 0 -14" transform="rotate(0,390,292)"/><path d="M 383 341v 14h 14v -7a 7 7, 0, 0, 0, -7 -7" transform="rotate(-90,390,348)"/><rect x="383" y="355" width="14" height="14" transform="rotate(0,390,362)"/><circle cx="390" cy="390" r="7" transform="rotate(0,390,390)"/><rect x="383" y="411" width="14" height="14" transform="rotate(0,390,418)"/><path d="M 383 453v 14h 7a 7 7, 0, 0, 0, 0 -14" transform="rotate(0,390,460)"/><path d="M 397 131v 14h 7a 7 7, 0, 0, 0, 0 -14" transform="rotate(-90,404,138)"/><path d="M 397 145v 14h 7a 7 7, 0, 0, 0, 0 -14" transform="rotate(90,404,152)"/><circle cx="404" cy="194" r="7" transform="rotate(0,404,194)"/><rect x="397" y="229" width="14" height="14" transform="rotate(0,404,236)"/><rect x="397" y="243" width="14" height="14" transform="rotate(0,404,250)"/><path d="M 397 257v 14h 14v -7a 7 7, 0, 0, 0, -7 -7" transform="rotate(90,404,264)"/><path d="M 397 299v 14h 14v -7a 7 7, 0, 0, 0, -7 -7" transform="rotate(-90,404,306)"/><rect x="397" y="313" width="14" height="14" transform="rotate(0,404,320)"/><rect x="397" y="327" width="14" height="14" transform="rotate(0,404,334)"/><rect x="397" y="341" width="14" height="14" transform="rotate(0,404,348)"/><rect x="397" y="355" width="14" height="14" transform="rotate(0,404,362)"/><rect x="397" y="411" width="14" height="14" transform="rotate(0,404,418)"/><rect x="397" y="425" width="14" height="14" transform="rotate(0,404,432)"/><path d="M 397 439v 14h 14v -7a 7 7, 0, 0, 0, -7 -7" transform="rotate(180,404,446)"/><circle cx="418" cy="180" r="7" transform="rotate(0,418,180)"/><path d="M 411 215v 14h 14v -7a 7 7, 0, 0, 0, -7 -7" transform="rotate(-90,418,222)"/><path d="M 411 229v 14h 14v -7a 7 7, 0, 0, 0, -7 -7" transform="rotate(90,418,236)"/><path d="M 411 271v 14h 7a 7 7, 0, 0, 0, 0 -14" transform="rotate(-90,418,278)"/><rect x="411" y="285" width="14" height="14" transform="rotate(0,418,292)"/><rect x="411" y="299" width="14" height="14" transform="rotate(0,418,306)"/><rect x="411" y="313" width="14" height="14" transform="rotate(0,418,320)"/><rect x="411" y="327" width="14" height="14" transform="rotate(0,418,334)"/><rect x="411" y="341" width="14" height="14" transform="rotate(0,418,348)"/><rect x="411" y="355" width="14" height="14" transform="rotate(0,418,362)"/><rect x="411" y="369" width="14" height="14" transform="rotate(0,418,376)"/><rect x="411" y="383" width="14" height="14" transform="rotate(0,418,390)"/><rect x="411" y="397" width="14" height="14" transform="rotate(0,418,404)"/><path d="M 411 411v 14h 14v -7a 7 7, 0, 0, 0, -7 -7" transform="rotate(90,418,418)"/><path d="M 411 439v 14h 7a 7 7, 0, 0, 0, 0 -14" transform="rotate(0,418,446)"/><path d="M 411 467v 14h 7a 7 7, 0, 0, 0, 0 -14" transform="rotate(180,418,474)"/><path d="M 425 131v 14h 14v -7a 7 7, 0, 0, 0, -7 -7" transform="rotate(-90,432,138)"/><rect x="425" y="145" width="14" height="14" transform="rotate(0,432,152)"/><path d="M 425 159v 14h 7a 7 7, 0, 0, 0, 0 -14" transform="rotate(90,432,166)"/><path d="M 425 201v 14h 14v -7a 7 7, 0, 0, 0, -7 -7" transform="rotate(-90,432,208)"/><path d="M 425 215v 14h 14v -7a 7 7, 0, 0, 0, -7 -7" transform="rotate(90,432,222)"/><circle cx="432" cy="264" r="7" transform="rotate(0,432,264)"/><path d="M 425 327v 14h 14v -7a 7 7, 0, 0, 0, -7 -7" transform="rotate(0,432,334)"/><rect x="425" y="341" width="14" height="14" transform="rotate(0,432,348)"/><path d="M 425 355v 14h 14v -7a 7 7, 0, 0, 0, -7 -7" transform="rotate(90,432,362)"/><rect x="425" y="397" width="14" height="14" transform="rotate(0,432,404)"/><circle cx="432" cy="432" r="7" transform="rotate(0,432,432)"/><path d="M 425 453v 14h 7a 7 7, 0, 0, 0, 0 -14" transform="rotate(-90,432,460)"/><path d="M 425 467v 14h 14v -7a 7 7, 0, 0, 0, -7 -7" transform="rotate(90,432,474)"/><rect x="439" y="131" width="14" height="14" transform="rotate(0,446,138)"/><path d="M 439 145v 14h 14v -7a 7 7, 0, 0, 0, -7 -7" transform="rotate(90,446,152)"/><rect x="439" y="201" width="14" height="14" transform="rotate(0,446,208)"/><path d="M 439 229v 14h 7a 7 7, 0, 0, 0, 0 -14" transform="rotate(-90,446,236)"/><path d="M 439 243v 14h 14v -7a 7 7, 0, 0, 0, -7 -7" transform="rotate(180,446,250)"/><path d="M 439 271v 14h 7a 7 7, 0, 0, 0, 0 -14" transform="rotate(180,446,278)"/><path d="M 439 299v 14h 7a 7 7, 0, 0, 0, 0 -14" transform="rotate(-90,446,306)"/><path d="M 439 313v 14h 7a 7 7, 0, 0, 0, 0 -14" transform="rotate(90,446,320)"/><rect x="439" y="341" width="14" height="14" transform="rotate(0,446,348)"/><path d="M 439 383v 14h 7a 7 7, 0, 0, 0, 0 -14" transform="rotate(-90,446,390)"/><rect x="439" y="397" width="14" height="14" transform="rotate(0,446,404)"/><circle cx="446" cy="446" r="7" transform="rotate(0,446,446)"/><path d="M 453 131v 14h 7a 7 7, 0, 0, 0, 0 -14" transform="rotate(0,460,138)"/><rect x="453" y="201" width="14" height="14" transform="rotate(0,460,208)"/><path d="M 453 215v 14h 7a 7 7, 0, 0, 0, 0 -14" transform="rotate(90,460,222)"/><path d="M 453 243v 14h 7a 7 7, 0, 0, 0, 0 -14" transform="rotate(0,460,250)"/><rect x="453" y="271" width="14" height="14" transform="rotate(0,460,278)"/><path d="M 453 327v 14h 7a 7 7, 0, 0, 0, 0 -14" transform="rotate(-90,460,334)"/><rect x="453" y="341" width="14" height="14" transform="rotate(0,460,348)"/><path d="M 453 355v 14h 7a 7 7, 0, 0, 0, 0 -14" transform="rotate(90,460,362)"/><path d="M 453 397v 14h 14v -7a 7 7, 0, 0, 0, -7 -7" transform="rotate(0,460,404)"/><path d="M 453 411v 14h 14v -7a 7 7, 0, 0, 0, -7 -7" transform="rotate(180,460,418)"/><circle cx="460" cy="474" r="7" transform="rotate(0,460,474)"/><circle cx="474" cy="152" r="7" transform="rotate(0,474,152)"/><path d="M 467 201v 14h 7a 7 7, 0, 0, 0, 0 -14" transform="rotate(0,474,208)"/><circle cx="474" cy="236" r="7" transform="rotate(0,474,236)"/><path d="M 467 271v 14h 14v -7a 7 7, 0, 0, 0, -7 -7" transform="rotate(0,474,278)"/><path d="M 467 285v 14h 7a 7 7, 0, 0, 0, 0 -14" transform="rotate(90,474,292)"/><circle cx="474" cy="320" r="7" transform="rotate(0,474,320)"/><path d="M 467 341v 14h 7a 7 7, 0, 0, 0, 0 -14" transform="rotate(0,474,348)"/><path d="M 467 411v 14h 7a 7 7, 0, 0, 0, 0 -14" transform="rotate(0,474,418)"/><circle cx="474" cy="446" r="7" transform="rotate(0,474,446)"/></clipPath><clipPath id="clip-path-corners-square-color-0-0"><path clip-rule="evenodd" d="M 19 54v 28a 35 35, 0, 0, 0, 35 35h 28a 35 35, 0, 0, 0, 35 -35v -28a 35 35, 0, 0, 0, -35 -35h -28a 35 35, 0, 0, 0, -35 35M 54 33h 28a 21 21, 0, 0, 1, 21 21v 28a 21 21, 0, 0, 1, -21 21h -28a 21 21, 0, 0, 1, -21 -21v -28a 21 21, 0, 0, 1, 21 -21" transform="rotate(0,68,68)"/></clipPath><clipPath id="clip-path-corners-dot-color-0-0"><circle cx="68" cy="68" r="21" transform="rotate(0,68,68)"/></clipPath><clipPath id="clip-path-corners-square-color-1-0"><path clip-rule="evenodd" d="M 383 54v 28a 35 35, 0, 0, 0, 35 35h 28a 35 35, 0, 0, 0, 35 -35v -28a 35 35, 0, 0, 0, -35 -35h -28a 35 35, 0, 0, 0, -35 35M 418 33h 28a 21 21, 0, 0, 1, 21 21v 28a 21 21, 0, 0, 1, -21 21h -28a 21 21, 0, 0, 1, -21 -21v -28a 21 21, 0, 0, 1, 21 -21" transform="rotate(90,432,68)"/></clipPath><clipPath id="clip-path-corners-dot-color-1-0"><circle cx="432" cy="68" r="21" transform="rotate(90,432,68)"/></clipPath><clipPath id="clip-path-corners-square-color-0-1"><path clip-rule="evenodd" d="M 19 418v 28a 35 35, 0, 0, 0, 35 35h 28a 35 35, 0, 0, 0, 35 -35v -28a 35 35, 0, 0, 0, -35 -35h -28a 35 35, 0, 0, 0, -35 35M 54 397h 28a 21 21, 0, 0, 1, 21 21v 28a 21 21, 0, 0, 1, -21 21h -28a 21 21, 0, 0, 1, -21 -21v -28a 21 21, 0, 0, 1, 21 -21" transform="rotate(-90,68,432)"/></clipPath><clipPath id="clip-path-corners-dot-color-0-1"><circle cx="68" cy="432" r="21" transform="rotate(-90,68,432)"/></clipPath></defs><rect x="0" y="0" height="500" width="500" clip-path="url('#clip-path-background-color')" fill="#fff"/><rect x="0" y="0" height="500" width="500" clip-path="url('#clip-path-dot-color')" fill="#000000"/><rect x="19" y="19" height="98" width="98" clip-path="url('#clip-path-corners-square-color-0-0')" fill="#000000"/><rect x="47" y="47" height="42" width="42" clip-path="url('#clip-path-corners-dot-color-0-0')" fill="#000000"/><rect x="383" y="19" height="98" width="98" clip-path="url('#clip-path-corners-square-color-1-0')" fill="#000000"/><rect x="411" y="47" height="42" width="42" clip-path="url('#clip-path-corners-dot-color-1-0')" fill="#000000"/><rect x="19" y="383" height="98" width="98" clip-path="url('#clip-path-corners-square-color-0-1')" fill="#000000"/><rect x="47" y="411" height="42" width="42" clip-path="url('#clip-path-corners-dot-color-0-1')" fill="#000000"/></svg>